<?xml version="1.0" encoding="UTF-8"?><svg id="Capa_1" xmlns="http://www.w3.org/2000/svg" viewBox="0 0 442.59 350.09"><defs><style>.cls-1{fill:#474747;stroke-width:0px;}</style></defs><path class="cls-1" d="M55.57,299.83c0-24.63-.03-49.27,0-73.9.06-33.15.14-66.31.35-99.46.01-1.69.83-4.02,2.09-4.96,16.66-12.42,33.49-24.6,50.23-36.91,27.61-20.32,55.24-40.61,82.74-61.08,10.13-7.54,19.92-15.56,30.07-23.52,7.41,5.74,14.77,11.63,22.31,17.26,27.62,20.59,55.38,40.99,82.94,61.66,14.24,10.68,28.11,21.85,42.25,32.67,4.49,3.43,9.15,6.69,14,9.59,2.99,1.78,3.89,3.88,3.89,7.25-.03,41.65.02,83.31.18,124.96.06,14.32.48,28.64.76,42.96.02,1.26.26,2.52.51,4.78,3.29-4.38,5.51-7.56,2.58-12.51-3.6-6.09-3.66-13.09-2.71-19.91.26-1.85,2.17-3.48,3.32-5.21,1.56,1.07,3.67,1.8,4.55,3.27,2.02,3.36,3.43,7.09,4.99,10.46,3.7-3.75,3.13-5.31.19-10.18-3.18-5.28-5.16-11.34-7.27-17.2-.47-1.32.72-3.24,1.14-4.89,1.67.56,3.81.65,4.91,1.77,3.47,3.52,6.56,7.42,9.8,11.17,5.31-4.67,5.44-8.47.79-13.91-3.08-3.6-6.04-7.53-7.95-11.8-.88-1.98.87-5.14,1.42-7.77,2.36.83,5.14,1.13,7,2.6,3.08,2.44,5.57,5.64,9.39,9.65.76-14.08,8.98-22.47,18.27-30.48,4.32,3.73,5.45,8.07,2.92,12.67-1.96,3.58-4.21,7.82-7.51,9.69-8.36,4.76-8.9,13.44-13.27,21.86,4.54,0,8.07-.28,11.53.09,2.95.32,5.82,1.39,8.73,2.13-1.83,2.51-3.14,6.06-5.6,7.31-4.17,2.11-9.04,3.59-13.69,3.82-5.62.28-8.45,2.84-10.21,7.65-.72,1.97-1.75,3.83-3.14,6.82,9.45-2.93,17.82-3.93,25.86,1.62-1.86,4.99-6.11,6.45-10.21,7.13-4.35.72-9.07,1.04-13.31.1-4.97-1.11-7.58.77-9.73,4.56-1.28,2.26-2.46,4.58-3.95,7.37,4.52-.41,8.28-1.02,12.04-1.04,5.52-.02,12.04,3.66,12.09,6.44.05,2.57-6.01,5.47-12,5.3-4.48-.13-8.95-.75-13.4-1.37-2.87-.4-5.21.25-5.93,3.14-1.15,4.62-2.23,9.31-2.65,14.04-.53,5.96-.23,11.98-.56,17.96-.24,4.41-2.25,6.63-7.31,6.62-95.8-.21-191.6-.24-287.4-.36-9.65-.01-19.3-.54-28.95-.61-4.87-.04-6.94-2.3-6.95-7-.01-6.33-.12-12.66-.26-18.99-.05-2.32-.07-4.7-.54-6.95-1.34-6.43-4.47-8.47-10.87-7.79-4.62.49-9.39,1.35-13.89.68-3.12-.47-5.9-3.26-8.83-5.01,2.87-2.05,5.48-5.04,8.67-5.88,3.53-.93,7.57.1,11.39.28.94.04,1.88.1,3.82.2-2.26-3.75-3.77-7.15-6.14-9.78-1.23-1.36-3.95-1.71-6.05-1.87-5.74-.44-11.58-.06-17.23-.97-2.79-.45-5.23-3.05-8.68-5.2,8.81-6.55,17.25-5.63,27.38-2.54-2.71-5.08-4.51-9.08-6.94-12.65-.74-1.09-3.21-1.18-4.93-1.4-6.28-.78-12.76-1.04-17.66-5.73-1.53-1.47-2.28-3.76-3.39-5.67,1.99-.82,3.94-2.18,5.99-2.36,4.26-.37,8.58-.11,13.68-.11-3.7-8.2-4.32-16.82-13-21.69C2.61,225.53-.34,219.36.03,212.53c.1-1.85,1.55-4,3.03-5.21.58-.47,3.26.92,4.46,2.03,6.53,6.06,12.5,12.52,13.48,22.02.13,1.24.79,2.43,1.72,5.18,3.4-3.8,5.85-7.16,8.95-9.76,1.62-1.36,5.11-2.54,6.4-1.71,1.51.97,2.69,4.72,1.98,6.41-1.67,4.01-4.17,7.83-7.01,11.15-6,7.02-6.18,6.86-.65,15.42,2.67-3.45,5.01-7.09,7.99-10.07,1.54-1.55,4.23-1.95,6.4-2.87.48,2.27,1.89,4.83,1.27,6.74-1.6,4.99-3.19,10.46-6.46,14.31-3.64,4.29-3.44,7.29-.43,10.97,1.82-3.62,3.48-7.4,5.62-10.88.84-1.36,2.76-2.05,4.19-3.05.97,1.44,2.34,2.75,2.85,4.33,2.27,7.08.65,13.95-2.41,20.29-2.47,5.12-.99,8.71,2.24,12.26.64-.08,1.27-.16,1.91-.25ZM344.2,343.6c4.71-.86,10.29-.24,13.2-2.73,7.14-6.12,13.33-13.45,19.38-20.72,5.55-6.67,5.06-6.77-.36-13.37-3.34-4.07-6.31-8.54-8.78-13.18-.81-1.52-.12-4.67,1.06-6.1.69-.84,3.91-.2,5.64.58,2.44,1.09,4.55,2.92,7.41,4.84,0-2.11,0-3.26,0-4.41-.3-36.14-.54-72.29-.94-108.43-.18-16.32-.51-32.65-1.16-48.96-.1-2.59-1.62-5.93-3.61-7.5-13.86-10.9-27.98-21.48-42.09-32.05-35.56-26.64-71.22-53.16-106.68-79.94-4.11-3.11-7.01-3.16-10.9-.04-10.65,8.53-21.38,16.98-32.32,25.14-38.93,29.09-77.98,58.01-116.86,87.15-1.85,1.39-3.37,4.15-3.71,6.46-.73,5.08-.75,10.29-.8,15.45-.37,42.82-.69,85.63-1.02,128.45-.05,6.01,0,12.02,0,18.93,2.87-2.1,4.46-3.75,6.4-4.54,2.08-.85,4.49-.89,6.75-1.29.15,2.34,1.25,5.19.29,6.91-2.88,5.18-6.07,10.38-10.08,14.69-3.32,3.56-3.14,6.05-.26,9.24,6.13,6.79,12.56,13.35,18.26,20.48,4.67,5.83,10.16,4.61,16.24,3.79-7.6-23.81-13.3-47.54-15.54-72.01-.09-1.01-1.22-2.14-2.16-2.81-4.42-3.13-9.11-5.91-13.33-9.29-1.37-1.1-1.62-3.6-2.39-5.46,1.98-.55,4.07-1.81,5.91-1.51,3.51.57,6.89,2.02,11.15,3.37,0-4.45-.17-8.71.06-12.95.16-3.07-.84-4.77-3.74-6.11-6.83-3.15-11.41-8.65-13.76-15.7-.67-2-.51-5.42.76-6.6,1.24-1.15,4.96-1.16,6.54-.1,3.87,2.58,7.14,6.07,10.79,9.31,1.31-5.18,2.61-10.5-1.85-15.43-2-2.21-4.12-4.52-5.36-7.17-1.43-3.06-2.65-6.54-2.68-9.85-.05-5.3,4.19-7.21,8.5-4.12,2.22,1.59,4.06,3.71,6.07,5.59.38-.17.77-.34,1.15-.52-.67-1.59-1-3.46-2.06-4.73-4.41-5.3-5.99-11.52-5.68-18.14.13-2.68,1.7-5.29,2.61-7.93.58-.05,1.16-.09,1.73-.14,2.69,3.57,5.38,7.15,8.17,10.85,2.51-5.1,3.83-9.46.6-15.09-2.19-3.82-1.86-9.23-2.08-13.96-.06-1.3,1.75-3.54,3.04-3.83,1.28-.28,3.34,1.03,4.41,2.22,1.71,1.9,2.89,4.27,5.08,7.66,2.41-5.22,4.46-9.3,6.2-13.5,2.35-5.67,5.88-10.17,11.99-11.76,2.22-.58,5.62-.79,6.89.46,1.14,1.12.69,4.69-.11,6.78-2.49,6.51-7.44,10.94-13.55,14.06-4.5,2.3-6.54,6.28-8.18,10.3,5.1-1.5,9.93-3.26,14.91-4.22,1.96-.38,4.27,1.03,6.42,1.62-.85,1.99-1.22,4.47-2.64,5.9-6.52,6.59-13.82,11.14-23.58,6.04-1.22,3.93-2.24,7.18-3.53,11.34,4.22-1.9,7.39-3.88,10.84-4.68,1.93-.45,4.31,1.05,6.49,1.67-.63,2.17-.57,5.15-2.01,6.37-4.03,3.42-8.52,6.4-13.13,9.01-7.15,4.06-8.85,7.01-7.98,16.57,1.53-1.13,2.68-2.43,4.12-2.95,3.36-1.22,6.85-2.82,10.31-2.88,5.06-.09,6.85,3.53,3.4,7.11-4.55,4.71-9.68,9.14-15.27,12.5-5.99,3.6-8.34,8.02-5.87,14.31,3.91-2.3,7.73-5.01,11.94-6.78,1.71-.72,5.18-.12,6.21,1.18.99,1.25.66,4.91-.51,6.22-3.71,4.15-7.7,8.3-12.32,11.34-6.69,4.4-8.65,9.51-5.23,17.27,3.12-2.63,6.03-5.71,9.54-7.78,1.64-.97,5.58-.82,6.44.34,1.22,1.65,1.6,5.42.49,6.99-3.03,4.3-6.4,9.02-10.79,11.52-5.58,3.17-5.64,6.99-4.48,11.94,3.86,16.51,7.57,33.07,11.7,49.52,2.17,8.65,2.5,8.27,11.22,8.25,4.92-.01,6.25-1.42,5.57-6.39-1.59-11.7-2.97-23.47-3.67-35.25-.55-9.36,1.15-10.63,10.42-11.02,4.22-.18,8.44-.39,13.72-.64-2.59-3.24-4.26-5.5-6.1-7.61-6.04-6.9-10-14.91-12.42-23.66-.44-1.58-.02-4.35,1.06-5.16,1.42-1.06,4.22-1.5,5.83-.81,2.49,1.07,4.55,3.24,6.66,5.08,1.29,1.13,2.34,2.53,3.66,3.98,2.7-8.76-3.35-14.27-5.52-20.98-1.48.33-2.79,1.08-3.71.75-2.81-1.01-5.98-1.94-7.98-3.93-.92-.92.79-4.23.85-6.47.05-1.83-.55-3.68-.9-5.51-.44-2.3-2.04-5.28-1.14-6.71,1.3-2.08,4.27-3.34,6.78-4.33,1.33-.53,3.18.25,4.8.43-.34-.4-.68-.8-1.02-1.2,2.56-3.09,4.65-7.8,7.84-8.72,2.27-.65,6.01,3.79,9.98,6.59.05-.01,1.47-.52,2.92-.64,1.64-.13,3.37-.18,4.95.21,5.18,1.29,6.78,5.56,4.39,10.03-.61,1.15-.04,3.6.87,4.79,3.89,5.11,3.93,6.38-.19,11.13-1.02,1.17-1.91,2.78-2.1,4.28-1.16,9.15-3.63,10.84-12.81,8v20.36c3.43-3.93,6.11-7.58,9.41-10.54,1.46-1.31,4.42-2.09,6.19-1.51,1.13.37,1.71,3.61,1.83,5.61.11,1.92-.32,4.08-1.16,5.81-3.32,6.84-6.9,13.56-10.21,20,2.77.43,6.54.98,10.3,1.61,4.14.69,5.83,2.93,5.34,7.32-1.01,9.1-1.66,18.24-2.39,27.37-.46,5.73-.8,11.46-1.2,17.39h14.12c0-2.3,0-4.26,0-6.22,0-44.49.01-88.98-.01-133.48,0-8.88,1.46-17,7.93-23.94,12.8-13.74,33.13-18.69,51.37-11.26,14.99,6.11,24.24,15.28,23.79,38.74-.83,43.64-.22,87.31-.22,130.97,0,1.75,0,3.5,0,5.16h13.74c0-2.35.14-4.33-.02-6.29-1.03-12.78-2.03-25.56-3.25-38.32-.41-4.32,1.24-6.65,5.41-7.35,3.85-.65,7.71-1.3,11.87-2-6.96-7.3-11.75-15.36-12.73-25.15-.2-1.98,1.35-4.14,2.09-6.22,2,.78,4.46,1.07,5.91,2.43,3.27,3.08,6.04,6.7,9.56,10.71v-21.21c-9.81,2.85-11.95,1.35-12.94-8.15-.13-1.25-1.22-2.56-2.17-3.55-4.2-4.36-4.33-7.04-.36-11.62.85-.98,1.67-1.97,2.46-2.89-4.31-5.82-3.25-10.38,2.75-11.98,1.85-.49,4.08-.56,5.89-.01,2.49.75,3.69.06,5.41-1.77,1.88-2,5.36-4.8,6.98-4.19,2.38.91,3.8,4.48,5.48,7.02.49.74.49,1.82.79,3.07,5.01-2.18,8.71-.62,11.54,3.32,3.62,5.05-2.47,7.09-2.9,10.61,1.15,2.71,3.11,6.15,2.14,8.19-2.52,5.31-7.88,4.25-11.69,3.45-2.23,3.92-4.74,7.12-5.92,10.75-1.14,3.48-.91,7.41-1.27,11.05,4.13-3.54,7.48-6.96,11.42-9.49,1.44-.93,4.76-.4,6.27.73,1.12.84,1.36,3.94.83,5.68-2.78,9.18-7.03,17.59-13.96,24.47-1.59,1.58-2.82,3.53-4.22,5.32.14.51.28,1.03.42,1.54,4.58,0,9.17-.05,13.75.01,8.21.1,10.04,1.53,9.58,9.62-.61,10.79-1.99,21.54-3.1,32.3-1.1,10.68-1.13,10.79,9.64,10.35,1.73-.07,4.59-1.38,4.9-2.62,4.89-19.85,9.44-39.79,14.07-59.7.63-2.72-.94-3.9-2.93-5.54-4.45-3.65-8.57-7.77-12.45-12.03-2.2-2.42-3.4-5.82-.66-8.58,2.91-2.93,6.01-.86,8.51,1.05,2.95,2.25,5.54,4.96,9.13,8.24,0-4.05-.25-7.02.06-9.94.42-4.04-1.38-5.8-4.8-7.93-5.1-3.18-9.51-7.61-13.7-12-1.19-1.25-1.52-4.87-.57-6.17.97-1.32,4.15-1.83,6.11-1.43,2.49.51,4.81,2.16,7.04,3.56,1.73,1.09,3.23,2.56,5.13,4.1,1.14-10.04-.16-11.43-7.73-15.91-5.04-2.98-9.21-7.5-13.48-11.64-1.08-1.04-1.87-3.85-1.24-4.82.86-1.32,3.42-2.58,4.92-2.27,4.97,1.04,9.79,2.8,14.24,4.16-.58-10.4-.7-10.34-10.41-16.09-3.99-2.36-7.8-5.15-11.23-8.25-1.41-1.28-1.61-3.9-2.35-5.92,2.18-.66,4.53-2.19,6.51-1.8,3.59.71,6.96,2.55,11.18,4.22-1.3-3.99-2.35-7.24-3.4-10.47-.85,0-1.36-.1-1.82.02-9.79,2.54-17.59-.25-23.26-8.36-2.45-3.51-1.54-6.08,2.64-5.92,3.88.14,7.74,1.44,11.55,2.46,1.94.52,3.74,1.54,6.43,2.69-2.51-5.96-5.93-9.31-10.33-12.45-4.71-3.36-8.54-8.16-12.09-12.83-1.15-1.51-1.04-5.17.06-6.78.8-1.18,4.34-1.24,6.36-.69,7.48,2.02,11.22,7.63,13.49,14.73,1.13,3.53,3.16,6.76,5.19,10.98,2.26-3.59,3.45-6.03,5.17-8.01,1.06-1.21,3.12-2.58,4.38-2.3,1.27.28,3.08,2.62,2.96,3.89-.51,5.19-.74,10.75-2.83,15.37-2.54,5.62-1,9.67,1.8,14.17,1.98-3.01,3.49-6.05,5.68-8.47,2.64-2.93,5.21-2.06,5.83,1.87,1.02,6.52,1.03,12.9-3.22,18.65-1.68,2.28-2.6,5.13-3.86,7.71,2.43-.7,3.7-2.27,5.32-3.28,2.13-1.32,4.54-2.2,6.84-3.27,1.19,2.77,2.89,5.45,3.38,8.33.31,1.84-.9,4.16-1.95,5.96-1.77,3-3.66,6.04-6.04,8.55-4.68,4.95-2.77,10.13-1.78,15.19,4.02-3.34,7.6-6.82,11.71-9.46,1.48-.95,4.8-.59,6.27.51,1.1.83,1.28,4.05.66,5.79-2.58,7.31-7.44,12.82-14.22,16.71-1.5.86-3.35,2.57-3.49,4.04-.45,4.71-.17,9.5-.17,13.98,4.82-1.08,9.1-2.23,13.46-2.88,1.13-.17,3.11.93,3.58,1.96.44.96-.19,3.13-1.08,3.85-4.47,3.59-9.28,6.75-13.76,10.33-1.41,1.13-2.79,2.97-3.11,4.69-1.13,6.05-1.43,12.26-2.72,18.26-3.7,17.21-7.73,34.35-12.02,53.24ZM226.91,258.11s-.07,0-.11,0c0-8.99,0-17.97,0-26.96-.02-18.14-.09-36.28-.05-54.43,0-3.41-.72-5.76-4.71-6.2-5.58-.61-7,.65-7,7.15,0,53.26.12,106.52-.08,159.79-.02,5.45,2.34,5.58,6.52,5.74,4.55.18,5.55-1.41,5.52-5.69-.18-26.46-.09-52.93-.09-79.39ZM243.88,342.61c.13-1.54.33-2.84.33-4.14-.07-47.11-.14-94.21-.28-141.32-.02-5.65-.23-11.33-.85-16.94-.57-5.21-3.41-7.06-8.86-6.69v169.09h9.66ZM207.68,173.34c-7.01,1.02-8.59,2.58-8.61,8.65-.18,52.44-.31,104.88-.44,157.32,0,1.11.28,2.22.45,3.53,1.72.08,3.19.21,4.66.19,1.43-.02,2.86-.19,3.94-.28v-169.42ZM159.01,343.02c.82-11.55,1.6-22.56,2.41-33.9h-38.12c1.41,10.83,2.6,20.87,4.15,30.86.18,1.17,2.29,2.87,3.54,2.91,9.11.25,18.22.13,28.03.13ZM318.77,309.12h-37.95c.8,10.29,1.48,20.51,2.55,30.69.11,1.09,2.52,2.72,3.9,2.75,7.97.2,15.95.13,23.91-.2,1.29-.05,3.42-1.72,3.6-2.87,1.5-9.83,2.64-19.72,3.99-30.37ZM255.35,342.59c.13-2.85.36-5.49.37-8.12.07-37.45.17-74.89.1-112.34-.02-9.97-.41-19.95-1.03-29.9-.17-2.64-1.83-5.19-2.81-7.77-.53.15-1.05.3-1.58.45v157.69h4.95ZM191.74,185.55c-.55-.08-1.09-.16-1.64-.24-3.71,4.44-3.87,9.92-3.88,15.37-.04,36.27-.02,72.55-.03,108.82,0,10.94,0,21.89,0,33.07h5.55v-157.03ZM279.81,301.52h38.45l.83-1.38c-1.36-.96-2.63-2.58-4.09-2.76-5.1-.64-10.26-.94-15.4-1.07-6.57-.17-13.15-.04-19.79-.04v5.26ZM162.66,296.67c-.34-.21-.62-.54-.9-.54-11.93.35-23.85.67-35.77,1.22-.92.04-1.77,1.73-2.65,2.65,1.04.76,2.07,2.18,3.12,2.19,8.45.07,16.9-.14,25.36-.24,3.56-.04,7.13,0,10.84,0v-5.28ZM61.97,325.22v17.36h16.21c-5.55-5.94-10.59-11.33-16.21-17.36ZM365.02,341.88c.18.37.37.73.55,1.1,4.78-.25,9.57-.49,14.76-.76v-16.97c-5.5,5.97-10.41,11.3-15.31,16.64ZM146.99,223.21c.3.4.6.81.9,1.21,2.84-2.11,5.67-4.22,8.51-6.33-.42-.56-.84-1.12-1.25-1.67-4.18.33-6.4,3.26-8.15,6.8ZM286.89,216.36c-.38.57-.75,1.14-1.13,1.71,2.72,1.95,5.43,3.89,8.15,5.84-.64-4.78-2.93-7.34-7.02-7.55Z"/></svg>