<?xml version="1.0" encoding="utf-8"?>
<!-- Generator: Adobe Illustrator 28.0.0, SVG Export Plug-In . SVG Version: 6.00 Build 0)  -->
<svg version="1.1" id="Capa_1" xmlns="http://www.w3.org/2000/svg" xmlns:xlink="http://www.w3.org/1999/xlink" x="0px" y="0px"
	 viewBox="0 0 282.2 196.5" style="enable-background:new 0 0 282.2 196.5;" xml:space="preserve">
<style type="text/css">
	.st0{fill:#929292;}
	.st1{fill:#FFFFFF;}
	.st2{fill:#7D9D91;}
	.st3{fill:#7F9D93;}
</style>
<path class="st0" d="M0,138.2L0,138.2"/>
<path class="st1" d="M185.4,21.8l2.6,3.3l2.9,11.2c0,0,0.8,3,0,4.6s-1.6,4.6-1.6,4.6l-4.9,7.5c0,0,1.3,10.6,1.7,11.8
	c0.4,1.2,10.2,6,10.2,6s16.9-9.2,17.4-10.4c0.5-1.2,3.5-14.4,3.5-14.4l-2.5-4.8l-0.7-4.1l1.5-5.1l1.6-6.1l-3.6-2.2l1.7-2.8l4.8-5
	l-6.3-7.1l-8.9-0.2c0,0-9.1-0.2-10.5,0.1c-1.5,0.3-11.6,6.1-11.6,6.1"/>
<polyline class="st1" points="75.5,5.8 80.6,4 86.4,4.7 92.2,5.7 86.9,56 71.1,55.7 70.4,28.9 "/>
<g>
	<path class="st2" d="M83.8,97.3c0.4,6.4,0.9,12.7,1.3,19.1c0.2,2.9,0.4,5.8,0.6,8.6c0.3,3.9,0.5,7.8,1,11.7c0.2,1.7,1,3.4,1.4,5.1
		c0.5,1.8,0.8,3.7,1.3,5.6c1.4,5.9,2.2,12,3,18c1,7.1,1.3,14.3,1.5,21.5c0,0.1,0,0.2,0,0.5c-3,0.6-5.9,1.3-8.9,1.8
		c-1.3,0.3-2.7,0.3-4.1,0.5c-0.8,0.1-1.5-0.2-2-0.6c-0.8-0.7-1.7-1.3-2.4-2c-0.3-0.3-0.6-0.8-0.8-1.2c-1-3.6-1.9-7.1-2.9-10.7
		c-0.8-2.9-1.5-5.9-2.3-8.8c-0.8-3-1.5-6-2.3-9c-0.7-2.8-1.4-5.7-2.1-8.5c-0.8-3.3-1.6-6.5-2.3-9.8c-0.8-3.6-1.6-7.1-2.3-10.7
		c-0.8-4.4-1.4-8.8-2.1-13.1c-1.5-9.2-1.8-18.4-2.3-27.7c-0.1-1.8-0.3-3.7-0.7-5.5c-0.4-2.1-0.1-4.1,0.3-6.1c0.5-2.4,1-4.7,1.4-7.1
		c0.1-0.7,0-1.6-0.2-2.3c-0.4-1.2-0.9-2.4-1.5-3.6c-3.3,1.7-4.2,4.6-4.9,7.9c-0.2-0.5-0.2-0.7-0.3-1c-1-3-2-6-2.9-9
		c-0.8-2.5-1.3-5.1-2.2-7.6c-1.1-3.2-0.9-6.5-0.3-9.7c0.5-2.8,1.2-5.5,2-8.2c0.6-2.2,1.4-4.4,2.2-6.6c0.7-1.9,1.4-3.7,2.3-5.5
		c1.4-3,2.8-6,4.4-8.9c0.5-0.9,0.8-1.6,0.7-2.6c0-0.8,0.4-1.3,1.2-1.6c3.1-1,6.2-2,9.4-2.9c2.5-0.7,5-1.1,7.5-1.6
		c0.1,0.8,0.1,1.6,0.3,2.2c0.3,0.6,0.8,1.1,1.3,1.6c1.1-2,2.1-3.9,3.2-5.8c0.1,0.1,0.2,0.1,0.3,0.2c-0.2,0.3-0.4,0.7-0.5,1
		c-0.2,0.4-0.4,0.7-0.6,1.1c-0.5,1.1-1,2.3-1.5,3.4c-0.3,0.9-0.7,1-1.5,0.4c-0.5-0.4-0.8-1-1.4-1.7c-0.6,3.6-1.3,7-1.8,10.5
		c-0.6,4.3-1.1,8.5-1.5,12.8c-0.3,3.8-0.5,7.7-0.6,11.6c-0.1,4.2-0.1,8.4-0.2,12.6c0,0.1,0,0.3,0.1,0.4h7c0-1,0-2,0-2.9
		c0-7.1-0.1-14.2-0.1-21.3c0-2,0.5-4.1,0.9-6.1c0.1-0.7,0.5-1.4,0.9-2c-0.3,1.5-0.7,2.9-0.9,4.4c-0.3,3.6-0.5,7.1-0.5,10.7
		c-0.1,5.7,0,11.4,0,17.1h8.4c0-0.5-0.1-1-0.1-1.5c-0.1-3.1-0.3-6.2-0.2-9.3c0.2-6.8,0.1-13.6,1.2-20.4c0.6-3.9,1.5-7.7,2.3-11.5
		c0.2-1.1,0.6-2.2,1.1-3.5c-0.9,0.4-1.5,0.8-2.2,1c-0.8,0.3-1.1,0.2-1.3-0.6c-0.5-1.9-0.9-3.7-1.3-5.6c0.7,1.9,1.4,3.8,2.1,5.8
		c0.9-0.5,1.7-0.9,2.5-1.4c0.2-0.1,0.3-0.5,0.4-0.7c0.3-0.9,0.5-1.7,0.8-2.7c1,0.2,2,0.4,2.9,0.7c5.1,1.3,10,2.9,14.6,5.3
		c0.7,0.4,1.5,0.8,2.2,1.2c0.8,0.5,0.9,1.1,0.5,1.9c-0.1,0.2-0.2,0.4-0.1,0.5c0.7,3.6,1.5,7.3,2.2,10.9c0.7,3.5,1.4,7,2.1,10.4
		c0.8,4,1.4,8,2.3,11.9c1.2,5.2,1.8,10.4,2.3,15.7c0.6,6.2,1.1,12.4,1.6,18.6c0,0.6-0.1,0.9-0.7,1.2c-2.2,1.1-4.6,1.6-7.1,1.4
		c-1.6-0.1-3.3-0.4-4.9-0.6c-0.5-0.1-0.7-0.3-0.8-0.8c-0.3-2.9-0.7-5.7-1-8.6c-0.6-4.7-1.2-9.3-1.9-14c-0.2-1.1-0.3-2.3-0.4-3.4
		c-0.4-3-1.1-5.9-2.3-8.7c-0.7-1.7-1.4-3.5-2-5.1c-0.9,3-0.2,6.1,0.4,9.1c0.3,1.4,0.6,2.8,0.9,4.2c0.8,3.4,1.6,6.8,2.4,10.3
		c0.2,1.2,0,2.5,0.2,3.7c0.7,4.4,1.5,8.8,2.3,13.2c0.7,4,1.4,7.9,2.1,11.9c0.8,4.3,1.5,8.6,2.3,12.9c0.7,4.1,1.5,8.2,2.3,12.4
		c0.7,3.5,1.4,7,2.1,10.5c0.7,3.4,1.6,6.8,2.3,10.2c0.8,3.8,1.5,7.6,2.2,11.3c0.7,3.9,1.4,7.7,2.1,11.6c0.8,4.3,1.5,8.5,2.3,12.8
		c0.3,1.6,0.6,3.1,0.9,4.7c0.2,0.7-0.2,1.1-0.6,1.5c-1.6,1.6-3.3,3-5.2,4.3c-1.1,0.7-2.2,1.1-3.5,1c-2.6-0.1-5.1-0.4-7.5-1.2
		c-0.5-0.2-0.8-0.4-1-1c-0.9-3.2-1.8-6.3-2.7-9.4c-0.7-2.6-1.5-5.1-2.2-7.7c-0.7-2.5-1.4-4.9-2.1-7.4c-0.7-2.6-1.5-5.2-2.2-7.8
		c-0.8-2.8-1.6-5.5-2.3-8.3c-0.7-2.4-1.3-4.9-2-7.3c-0.8-3-1.6-5.9-2.4-8.9c-0.7-2.8-1.5-5.6-2.2-8.4c-0.8-3-1.6-6-2.4-9
		c-0.7-2.5-1.3-5.1-2-7.6C85.4,103,84.6,100.2,83.8,97.3C83.9,97.3,83.8,97.3,83.8,97.3L83.8,97.3z M99.7,29.5
		c0-0.1,0.1-0.1,0.1-0.2c-1.1-0.8-2.2-1.7-3.4-2.5c-0.1-0.1-0.3-0.1-0.4-0.1c-0.5,0.1-1.9,1.6-2,2.3C96,29.2,97.8,29.3,99.7,29.5
		L99.7,29.5z"/>
	<path class="st2" d="M208.4,33.7c-0.6,1.1,0.2,2.1,0.5,3.1c-0.7-0.4-1.3-0.8-1.9-1.1c-0.4-0.2-0.9-0.3-1.3-0.3
		c-0.3,0-0.8,0.4-0.8,0.6c0,0.3,0.2,0.9,0.5,1c0.8,0.4,1.6,0.7,2.5,1c0.3,0.1,0.5,0.2,0.8,0.2c-1,0.6-2.1,1.2-3.1,1.8
		c-0.6,0.3-0.9,0.8-0.5,1.4c0.4,0.6,1.1,0.5,1.5,0.3c0.9-0.5,1.7-1.2,2.5-1.8c0.2-0.1,0.3-0.3,0.4-0.5c0.1,0,0.1,0.1,0.2,0.1
		c-0.2,0.5-0.4,1-0.6,1.6c-0.2,0.7-0.4,1.4-0.6,2.1c0,0.2,0.1,0.6,0.2,0.7c0.2,0.1,0.6,0,0.8-0.1c0.4-0.5,0.8-1.1,1.1-1.7
		c0.2-0.3,0.2-0.6,0.2-1c0.7,0.6,1.3,1.1,2,1.6c0.3,0.2,0.8,0.2,1.2,0.3c0-0.4,0.2-0.9,0-1.2c-0.3-0.7-0.9-1.3-1.4-2
		c0.7-0.2,1.3-0.5,2.2-0.8c0,0.8-0.1,1.6,0,2.3c0.1,0.5,0.5,1,0.8,1.5c-0.5,0.3-1.3,0.6-0.9,1.6c0.5,1.1,1.3,0.8,2.1,0.5
		c0.2,0.4,0.3,0.7,0.4,1.1c1.2,3.1,2.3,6.1,3.5,9.2c1.2,3.2,1.8,6.5,2.3,9.8c1.3,7.6,0.9,15.2,0.4,22.8c-0.5,7.2-1.3,14.4-1.8,21.6
		c-0.3,3.5-0.6,7,0.3,10.5c0.9,3.4,2.3,6.6,3.4,9.9c0.3,0.9,0.7,1.7,1.1,2.5c1.1,2.6,2.1,5.2,3.2,7.8c0.7,1.8,1.5,3.5,2.3,5.2
		c0.7,1.6,1.4,3.2,2.1,4.8c0.8,1.7,1.5,3.4,2.3,5.1c0.8,1.7,1.5,3.5,2.3,5.2c0.7,1.6,1.4,3.1,2.1,4.7c0.8,1.7,1.5,3.4,2.2,5.1
		c0.5,1.1,1,2.1,1.5,3.2c0.1,0.3,0.5,0.5,0.7,0.6c3.3,0.9,6.4,2.1,9.3,3.8c1.1,0.6,2.1,1.4,3,2.2c0.9,0.7,1,1.5,0.1,2.2
		c-1,0.8-2.1,1.6-3.3,2.1c-5.7,2.7-12,3.5-18.2,4.2c-4.3,0.5-8.6,0.9-12.9,1.5c-2.7,0.4-5.3,1.2-7.9,1.7c-4,0.8-8.1,1.2-12.1,0.3
		c-2.3-0.5-4.3-1.6-6-3.2c-1.8-1.6-1.9-3.7-2.4-5.7c-0.4-1.6-0.7-3.2-1.1-4.9c-7.9-0.6-16-2.2-24.1,0.6c0.2-1.2,0.3-2.2,0.5-3.2
		c0.5-3.6,0.9-7.1,1.3-10.7c0.2-1.6,0.4-3.2,1.2-4.7c0.7-1.3,1-2.8,1.6-4.2c0.8-2.2,1.7-4.5,2.6-6.7c0.7-1.7,1.4-3.5,2-5.2
		c0.8-2,1.6-4.1,2.4-6.1c0.6-1.6,1.2-3.2,1.9-4.8c0.8-2.2,1.7-4.4,2.5-6.5c0.7-1.9,1.4-3.7,2.1-5.6c0.6-1.6,1.2-3.1,1.7-4.7
		c0.1-0.3,0.2-0.7,0.2-1c-0.2-7.8-0.4-15.6-0.6-23.4c0-0.1,0-0.2-0.1-0.3c-0.4,0.5-0.8,1-1.1,1.5c-1,1.5-1.9,3.1-2.8,4.7
		c-1.1,1.8-2.1,3.6-3.2,5.3c-1.4,2.3-2.8,4.7-4.3,7c-1.7,2.6-3.4,5.1-5.1,7.6c-0.1,0.1-0.2,0.3-0.3,0.4c-1.5,2.9-2.7,6-3.6,9.1
		c-1.2,4.1-1.7,8.4-2.4,12.6c-1.2,6.6-1.6,13.3-2.1,19.9c-0.2,2.3-1.2,4.2-2.5,6c-0.1,0.1-0.1,0.2-0.2,0.3c-1.2,2.2-2.4,4.5-3.5,6.7
		c-0.7,1.5-1.5,2.9-1.9,4.5c-0.6,2-0.8,4.1-1.2,6.4c-0.1,0-0.5,0-0.8,0c-5.7-0.5-11.4-1.3-16.9-2.7c-2.3-0.6-4.6-1.4-6.7-2.5
		c-2.1-1-2-2.5,0.1-4.1c2.6-1.9,5.6-2.7,8.7-3.3c0.6-0.1,0.9-0.4,1.2-0.8c1.8-3.1,3.7-6.1,5.5-9.2c1.5-2.5,2.9-4.9,4.3-7.4
		c1.5-2.7,3.1-5.5,4.6-8.2c1.4-2.6,2.9-5.2,4.3-7.8c1.5-2.8,3-5.5,4.6-8.3c1.5-2.6,2.9-5.2,4.4-7.9c1.3-2.3,2.5-4.6,3.9-6.7
		c1.7-2.5,2.2-5.2,2.4-8c0.8-8,1.4-15.9,2.1-23.9c0.2-1.7,0.3-3.4,0.5-5c0.6-3.4,1.1-6.7,1.9-10c0.6-2.4,1.5-4.7,2.4-7.1
		c0.6-1.6,1.3-3.1,2-4.6c0.6-1.4,1.4-2.8,2.1-4.2c0.1-0.2,0.4-0.4,0.6-0.3c1.2,0.1,2.3,0.2,3.5,0.3c-1.2,0.5-2.4,1.1-3.6,1.6
		c-0.2,0.1-0.3,0.1-0.4,0.2c-0.5,0.4-0.4,0.8,0.2,1c1.1,0.3,1.9-0.4,2.8-0.7c0.2-0.1,0.4-0.2,0.6-0.3c0,0.9-0.1,1.7,0,2.5
		c0,0.3,0.4,0.6,0.6,0.9c0.4-0.3,0.9-0.4,1.1-0.8c0.3-0.7,0.4-1.5,0.6-2.4c0.8,0.3,1.6,0.6,2.4,0.9c0.2,0.1,0.5,0.2,0.8,0.2
		c0.4-0.1,0.8-0.3,1.2-0.4c-0.2-0.4-0.3-0.9-0.6-1.1c-0.7-0.5-1.6-0.8-2.5-1.2c0.9-0.3,1.7-0.4,2.4-0.8c0.4-0.2,0.8-0.6,1.2-1
		c-0.5-0.1-1-0.2-1.4-0.2c-0.6,0-1.2,0.2-1.8,0.4c0.3-0.8,0.6-1.5,0.8-2.3c0.1-0.4-0.2-0.8-0.3-1.2c-0.4,0.2-1,0.3-1.3,0.6
		c-0.4,0.5-0.6,1.1-1,1.8c-0.1-0.7-0.2-1.4-0.4-2c-0.1-0.3-0.3-0.7-0.6-0.9c-0.3-0.2-0.9-0.3-1.2-0.2c-0.3,0.1-0.5,0.7-0.4,1
		c0.3,1,0.7,1.9,1,2.9c-0.9-0.3-1.9-0.6-3.1-0.9c0.6-1,1.1-1.9,1.6-2.8c0.5-0.8,0.9-1.6,1.4-2.4c0.4-0.7,0.4-0.7,1.4-0.6
		c-0.4,0.2-0.6,0.3-0.9,0.5c-0.3,0.3-0.9,0.7-0.5,1.2c0.4,0.5,1,0.5,1.5,0.2c0.3-0.2,0.6-0.5,0.8-0.7c0.4,0.3,0.8,0.8,1.2,1
		c0.5,0.1,1.2,0.1,1.6-0.2c0.5-0.3,0-0.8-0.3-1.1c-0.3-0.4-0.6-0.7-0.9-1.2c0.6-0.2,1.2-0.3,1.7-0.6c0.2-0.1,0.5-0.5,0.5-0.6
		c-0.1-0.2-0.4-0.5-0.6-0.6c-0.5-0.1-1,0-1.5,0c-0.1-1.1-0.6-1.7-1.5-1.7c0.1-0.9,0.2-1.8,0.3-2.7c0.8-0.3,2-0.2,1.9-1.4
		c-0.1-0.9-0.8-1-1.3-1.1c0-0.7,0.2-1.5-0.2-1.8c-0.4-0.3-1.2-0.1-2-0.2c-0.2-0.4-0.4-1.1-0.8-1.9c1.1,0.4,1.7,0,2.4-1.1
		c0.2,0.4,0.3,0.7,0.5,0.9c0.3,0.3,0.6,0.6,0.9,0.6c0.5,0,1-0.2,1.4-0.5c0.1-0.1-0.2-0.8-0.4-1.1c-0.2-0.3-0.7-0.5-1-0.8
		c0-0.1,0.1-0.2,0.1-0.3c0.4-0.1,0.8-0.1,1.2-0.3c0.4-0.2,0.7-0.6,1.1-0.8c-0.4-0.2-0.8-0.4-1.3-0.5c-0.3-0.1-0.6,0-1,0.1
		c-0.1-0.6,0.4-1.7-0.9-1.7c-0.9,0-1.2,0.4-1.3,1.9c-0.8-0.3-1.7-0.8-2.4,0.1c-0.7-1.4-0.7-2.6-0.1-3c0.5,0.7,1.1,1.1,2,0.8
		c0.8-0.3,1-1,0.9-1.7c0.8-0.2,1.9-0.1,1.9-1.3c0-1-0.9-1.1-1.5-1.1c0.1-0.7,0.3-1.3,0.4-2.1c0.5-0.2,1.2-0.6,2.1-1
		c-0.1,0.5-0.3,0.9-0.3,1.3c0,0.5,0,1.1,0.1,1.6c0.1,0.6,0.6,0.8,1.1,0.5c0.5,0.7,1,1.4,1.5,2.1c-0.7,0-1.4,0-2.1,0
		c-0.3,0-0.7,0-0.9,0.1c-0.3,0.1-0.7,0.4-0.7,0.6c0,0.3,0.3,0.7,0.6,0.8c0.7,0.2,1.4,0.3,2.1,0.4c0.3,0,0.6,0.1,1,0.1
		c-0.3,0.5-0.6,0.9-0.8,1.3c-0.2,0.5-0.4,1.1-0.4,1.7c0,0.3,0.2,0.7,0.4,0.8c0.3,0.1,0.8,0,1-0.2c0.4-0.5,0.7-1.1,1-1.6
		c0.2-0.3,0.4-0.7,0.6-1c0.4,0.9,0.8,1.8,1.2,2.6c0.2,0.3,0.6,0.4,0.9,0.6c0.1-0.3,0.3-0.7,0.3-1c-0.2-0.7-0.5-1.3-0.7-2
		c0.9,0.2,1.6,0.5,2.4,0.7c0.6,0.1,1.4,0.4,1.6-0.4c0.2-0.7-0.6-1-1.1-1.2c-0.5-0.2-1-0.3-1.6-0.7c0.4-0.1,0.9-0.1,1.3-0.2
		c0.6-0.2,1.2-0.4,1.7-0.7c0.3-0.2,0.6-0.8,0.5-0.8c-0.3-0.3-0.8-0.7-1.2-0.7c-0.8,0.1-1.6,0.5-2.5,0.8c-0.4,0.1-0.7,0.3-1.1,0.5
		c0.3-1.2,0.7-2.4,1-3.6c0.8,0.6,1.5,0,2-0.3c0.5,0.5,0.9,1.1,1.5,1.4c1,0.4,1.5-0.2,1.2-1.2c-0.2-0.5-0.4-0.9-0.6-1.4
		c0.6-0.1,1.2-0.1,1.8-0.2c0.3-0.1,0.4-0.3,0.7-0.5c-0.2-0.2-0.4-0.5-0.6-0.6c-0.4-0.2-0.9-0.2-1.5-0.3c0.1-0.3,0.2-0.5,0.3-0.7
		c1,0.1,1.9,0.3,2.9,0.4c-0.3,0.9-0.6,1.7-0.9,2.6c-0.2,0.5-0.2,1.2,0.4,1.3c0.4,0.1,1.1-0.2,1.4-0.6c0.4-0.5,0.6-1.2,0.9-1.9
		c0-0.1,0.1-0.2,0.2-0.2c0.5,0.8,0.9,1.7,1.4,2.5c0.1,0.2,0.5,0.3,0.7,0.5c0.1-0.3,0.3-0.6,0.3-0.8c-0.1-0.7-0.3-1.3-0.6-2.1
		c0.5,0.2,1.1,0.3,1.6,0.4c0.3,0.1,0.6,0.2,0.9,0.2c0.5,0.1,1.2,0.2,1.4-0.4c0.2-0.7-0.4-0.9-0.9-1.1c-0.6-0.2-1.2-0.5-1.9-0.8
		c0.7-0.2,1.4-0.3,2.1-0.4c0.4-0.1,0.8-0.2,1-0.5c0.2-0.2,0.4-0.7,0.3-1c-0.1-0.3-0.6-0.7-0.9-0.6c-1.1,0.3-2.1,0.6-3.1,1
		c-0.2,0.1-0.3,0.2-0.6,0.3c0.2-0.9,0.5-1.6,0.6-2.4c0.1-0.4,0.2-0.8,0.1-1.2c-0.1-0.4-0.5-0.9-0.8-1c-0.6-0.2-1.1,0.2-1.2,0.8
		c-0.2,1.1-0.2,2.3-0.4,3.5c-0.1-0.2-0.2-0.5-0.4-0.7c-0.5-0.8-1.1-1.7-1.7-2.5c-0.2-0.2-0.5-0.3-0.8-0.5c-0.1,0.3-0.5,0.7-0.4,0.9
		c0.2,0.7,0.6,1.4,1,2c0.1,0.1,0.2,0.2,0.4,0.5c-0.4,0-0.7,0-0.9,0c-1.2,0.1-2.4,0.2-3.5,0.5c-0.5,0.1-0.8,0.9-1.2,1.3
		c-0.5-0.1-1.1-0.4-1.8-0.4c-0.3,0-0.6,0.4-0.8,0.7c-0.4,0.6,0,1,1.6,1.5c-0.3,0.2-0.6,0.3-0.9,0.5c-0.3,0.2-0.5,0.4-0.7,0.6
		c-0.1-0.1-0.3-0.2-0.3-0.2c0.4-0.9-0.3-1.2-0.8-1.6c-0.7-0.4-1.4-0.8-2.1-1.1c0.9-0.3,1.8-0.5,2.8-0.8c0.2-0.1,0.5-0.1,0.6-0.3
		c0.1-0.1,0.3-0.4,0.3-0.5c-0.1-0.2-0.3-0.3-0.5-0.3c-0.6,0-1.2,0.1-1.8,0.2c-0.3,0-0.7,0.1-1,0.2c0.4-0.7,0.7-1.4,1-2
		c0.2-0.5,0.5-1.2-0.2-1.5c-0.6-0.3-1.1,0.2-1.4,0.7c-0.3,0.5-0.5,1-0.8,1.5c-0.2-0.8-0.4-1.5-0.6-2.2c-0.3-0.9-0.9-1.2-1.5-0.9
		c-0.7,0.4-1,0.8-0.5,1.7c0.4,0.7,0.6,1.5,1,2.4c-0.9-0.3-1.7-0.6-2.5-0.8c-0.5-0.1-1.1-0.2-1.5-0.2c-0.4,0.1-0.9,0.4-0.9,0.8
		c-0.1,0.3,0.3,0.8,0.6,0.9c0.9,0.3,1.9,0.4,2.9,0.6c0.4,0.1,0.7,0,1.1,0.2c-1,0.3-1.9,0.7-2.9,1c-0.4,0.2-0.8,0.4-1.2,0.6
		c-0.2,0.1-0.2,0.4-0.3,0.6c-0.1,0.2-0.1,0.4-0.1,0.6c-0.3-0.1-0.6-0.1-0.7-0.3c-0.5-0.5-0.9-0.6-1.6-0.4c-0.9,0.4-0.9,0.8-0.4,1.9
		c-0.5,0-1.1-0.1-1.5,0.1c-0.4,0.2-0.6,0.8-0.9,1.3c-0.7-0.3-1.5-0.7-2.4-1.1c-1.5-0.8-3.1-1.5-4.6-2.3c-0.2-0.1-0.5-0.4-0.5-0.6
		c0.3-2,0.8-4,2.3-5.6c1.7-1.7,3.9-2.3,6.2-2.5c2.1-0.2,4.3-0.4,6.4-0.6c1.1-0.1,2.2-0.3,2.4-1.7c3.3,0.4,6.5,0.5,9.6-0.3
		c0.8,1.6,2.4,1.5,3.9,1.6c0,0.1,0,0.2,0,0.2c-0.5,0.3-1.1,0.7-0.7,1.3c0.4,0.6,1,0.1,1.4-0.1c0.2-0.1,0.3-0.2,0.6-0.3
		c0.1,0.4,0.1,0.8,0.3,1.1c0.1,0.2,0.3,0.3,0.4,0.5c0.2-0.2,0.4-0.3,0.5-0.5c0.1-0.2,0.1-0.5,0.1-0.7c0.5-0.1,1-0.1,1.4-0.3
		c0.2-0.1,0-0.6,0-1c3.2,0,6,1.4,7.2,4.4c0,0.1,0,0.1,0.1,0.2c0.7,1.9,0.6,2.3-1.1,3.8c-0.7,0.6-1.2,1.4-1.8,2.1
		c-0.2,0.2-0.5,0.4-0.7,0.4c-1.2-0.1-1.5,0.3-1.1,1.3c0,0.1,0.1,0.2,0.1,0.3c-0.5,0.5-1.6,0.6-1.3,1.6c1.6,1.2,2.6,1.5,1.9,1.2
		c0.1,0.7,1.4,0.9,1.2,1.8c-0.3,1-0.5,1.9-0.8,3c-0.8-1.3-1.7-0.5-2.6-0.3c0.1-0.4,0.3-0.7,0.2-1c0-0.3-0.1-0.9-0.3-0.9
		c-0.4,0-0.9,0.1-1.2,0.3c-0.3,0.3-0.5,0.7-0.7,1.1c-0.5-0.1-1.1-0.3-1.7-0.2c-0.4,0.1-0.7,0.5-1.1,0.8c0.3,0.3,0.5,0.7,0.9,0.9
		c0.4,0.3,1,0.4,1.5,0.6c-0.4,0.4-0.8,0.8-1.1,1.3c-0.1,0.2-0.2,0.7-0.1,0.7c0.2,0.2,0.6,0.2,0.9,0.1c0.5-0.2,0.9-0.4,1.4-0.7
		c0.8,1.3,1.2,1.5,1.9,1c0.6-0.4,0.6-1.1-0.1-2.1c0.6-0.1,1.1-0.2,1.8-0.4c-0.2,0.7-0.4,1.3-0.6,1.9c-0.1,0.2-0.1,0.4-0.1,0.6
		c0.1,0.8,0,1.4-0.8,1.8c-0.6,0.3-0.6,0.8-0.1,1.4c0.7,0.8,0.6,1-0.5,1.3c-0.7,0.2-1.3,0.5-1.9,0.7c0.4-0.9,0.8-1.7,1.1-2.6
		c0.1-0.3-0.1-0.7-0.1-1c-0.3,0.1-0.6,0.2-0.8,0.4c-0.5,0.6-0.9,1.2-1.3,1.7c-0.5-0.7-1-1.5-1.5-2.2C209.3,34,208.8,33.9,208.4,33.7
		c0.5-0.6,0.4-1.2,0-1.9c0.8-0.3,1.4-0.8,1.1-1.7c-0.4-1.1-1.4-0.5-2.1-0.7c0.2-1.3,0.1-1.7-0.7-2c-0.8-0.2-1.4,0.1-1.9,1
		c-0.7-0.1-1.4-0.4-1.9-0.2c-0.3,0.1-0.3,1-0.4,1.7c-0.4,0.2-1,0.6-0.8,1.4c0.2,1,1,1.2,1.9,1.3c0.1,0.8,0,1.6,1.1,1.8
		c1,0.1,1.5-0.4,1.6-1.1C207.1,33.5,207.8,33.6,208.4,33.7L208.4,33.7z M202.4,40.8c1-0.4,2-0.7,3-1.1c0.6-0.3,0.6-1.1-0.1-1.3
		c-0.4-0.1-0.9-0.2-1.3-0.1c-0.8,0.3-1.6,0.7-2.5,1c-0.2,0.1-0.4,0.2-0.7,0.3c0.8-1.2,1.1-2.4,1-3.7c0-0.5-0.3-0.9-0.9-1
		c-0.6-0.1-1,0.2-1.1,0.7c-0.1,0.4-0.2,0.9-0.3,1.4c0,0.7,0,1.4,0,2.3c-0.5-0.7-0.8-1.3-1.2-1.9c-0.3-0.5-0.6-1.1-1-1.5
		c-0.2-0.2-0.7-0.4-0.9-0.3c-0.2,0.1-0.4,0.6-0.4,0.8c0.1,0.6,0.4,1.1,0.7,1.6c0.2,0.3,0.5,0.6,0.7,0.9c-1.1,0.1-2,0-2.9,0.2
		c-0.3,0-0.6,0.4-1,0.7c0.3,0.3,0.6,0.6,0.9,0.7c0.9,0.2,1.9,0.4,2.8,0.5c-0.1,0.2-0.1,0.3-0.2,0.5c-0.3,0.7-0.7,1.3-0.9,2
		c-0.2,0.5-0.3,1.1,0.4,1.4c0.7,0.3,1.2-0.2,1.5-0.7c0.4-0.7,0.8-1.4,1.2-2.1c0.1,0.1,0.2,0.2,0.2,0.3c0.4,0.8,0.7,1.6,1.1,2.4
		c0.1,0.2,0.6,0.3,0.9,0.4c0.1-0.3,0.3-0.6,0.2-0.8c-0.2-0.7-0.4-1.4-0.7-2.2c0.2,0.1,0.5,0.2,0.7,0.2c0.7,0.2,1.4,0.4,2.2,0.5
		c0.3,0,0.6-0.2,1-0.4c-0.2-0.3-0.2-0.8-0.5-0.9C203.7,41.4,203,41.1,202.4,40.8L202.4,40.8z M202.2,13.9l0.2-0.2
		c0.8,1.5,2.1,1.6,3,0.2c0.3-0.5,0.6-0.5,1.1-0.6c0.5-0.1,1.1-0.5,1.3-1c0.3-0.6-0.4-0.9-0.9-1.1c-0.2-0.1-0.4-0.1-0.5-0.2
		c0.1,0,0.2,0,0.3,0c0.1-0.6,0.5-1.5,0.2-1.7c-0.4-0.4-1.2-0.3-2-0.5c-0.4-0.8-0.8-1.1-1.6-0.9c-1.1,0.2-0.8,1.1-0.9,1.8
		c-1.5-0.4-2-0.3-2.3,0.5c-0.1,0.3,0,0.8,0.2,1.1c0.2,0.3,0.7,0.4,1.1,0.6c-0.5,0.4-1.3,0.8-0.8,1.5
		C200.8,13.7,201.6,13.7,202.2,13.9L202.2,13.9z M208.6,47.4c0.8-0.3,1.3-0.7,1.1-1.5c-0.3-1.2-1.4-0.6-2.2-0.8
		c0.6-0.9,0.5-1.4-0.3-1.8c-0.3-0.1-0.7-0.3-1-0.2c-0.5,0.3-0.9,0.7-1.2,1c-0.7-0.1-1.4-0.3-1.9-0.1c-0.3,0.1-0.2,1-0.4,1.7
		c-0.5,0.2-1,0.7-0.8,1.5c0.2,1,1,1.1,1.9,1.2c0,0.8,0,1.7,1.1,1.8c1,0.1,1.4-0.5,1.6-1.4c0.7,0.6,1.4,1,2.1,0.4
		C209.3,48.7,208.8,48,208.6,47.4L208.6,47.4z M199.4,31.8c0.8-1.4,0.7-2-0.2-2.4c-0.3-0.1-0.8-0.2-0.9-0.1c-0.4,0.4-0.6,1-0.9,1.5
		c-0.5-0.4-0.8-1.5-1.9-1c-0.6,0.3-0.4,0.9,0.4,2c-0.4,0.3-0.9,0.5-1.2,0.8c-0.2,0.3-0.4,0.8-0.3,1.1c0.2,0.5,0.8,0.7,1.4,0.4
		c0.5-0.2,1-0.5,1.6-0.7c0.1,0.5,0.2,1,0.3,1.4c0.1,0.3,0.5,0.7,0.6,0.6c0.3-0.1,0.7-0.4,0.8-0.7c0.2-0.3,0.1-0.7,0.2-1.1
		c1.5,0.2,2,0,2.1-0.6C201.4,32.4,200.8,32,199.4,31.8L199.4,31.8z M196.1,47.5c-0.4,0.3-0.9,0.4-1.1,0.8c-0.2,0.4-0.3,0.9-0.1,1.4
		c0,0.2,0.8,0.3,1.2,0.2c0.5-0.1,1-0.4,1.6-0.7c0.1,0.5,0.2,1,0.3,1.5c0.1,0.3,0.5,0.6,0.7,0.6c0.3,0,0.6-0.3,0.7-0.6
		c0.2-0.4,0.1-0.9,0.2-1.3c0.7,0,1.7,0.6,2-0.4c0.4-1.4-1.1-1.2-1.9-1.6c0.8-1.1,0.8-1.9-0.1-2.2c-0.4-0.1-1-0.1-1.3,0.2
		c-0.3,0.3-0.4,0.9-0.6,1.4c-0.5-0.6-0.8-1.6-1.9-1.2C195.1,45.8,195.2,46.5,196.1,47.5L196.1,47.5z M209.9,22.4
		c-0.8-0.2-0.8-2-2.1-0.9c-1.1,0.9,0.4,1.2,0.6,1.9c-0.3,0.1-0.6,0.2-0.9,0.3c-0.6,0.3-1,1.1-0.6,1.6c0.4,0.6,1,0.5,1.5,0.2
		c0.4-0.2,0.9-0.5,1.3-0.7c0.2,0.6,0.4,1.1,0.6,1.6c0.1,0.2,0.4,0.5,0.5,0.5c0.2,0,0.5-0.3,0.6-0.5c0.2-0.4,0.2-0.9,0.2-1.4
		c1.8,0,2-0.1,2-0.7c0-0.2-0.1-0.6-0.2-0.7c-0.5-0.3-1.1-0.5-1.7-0.7c0.9-1.5,0.9-1.6-0.1-2.1C210.1,20.1,210.4,21.8,209.9,22.4
		L209.9,22.4z M198,57.3c0.4,0.5,0.7,1,1,1.4c0.3-0.4,0.6-0.8,0.7-1.1c0.5-0.3,1.1-0.4,1.2-0.7c0.2-0.8-0.6-0.8-1.2-1
		c0.5-0.9,0.4-1.4-0.2-1.6c-1-0.3-1.1,0.4-1.3,1c-0.5-0.2-0.5-1.2-1.4-0.6c-1,0.7,0.4,0.9,0.3,1.4c-0.6,0.2-1.5,0.6-1,1.3
		C196.7,58.6,197.4,57.4,198,57.3L198,57.3z M188.7,62.4c0,0-0.3,0.1-0.4,0.3c-0.2,0.3-0.2,0.7-0.3,1.1c0.3,0,0.8,0.2,1,0
		c0.8-0.5,1.2-0.4,1.3,0.6c0,0.2,0.3,0.3,0.5,0.5c0.2-0.2,0.4-0.3,0.4-0.6c0.1-0.2,0.1-0.5,0.1-0.8c0,0.1,0.1,0.1,0.1,0.2
		c0.5-0.2,1.2-0.3,1.3-0.5c0.3-1-0.9-0.7-1.3-1.1c0.5-0.9,0.4-1.4-0.2-1.6c-1-0.3-0.8,0.6-1.1,1.1c-0.6-0.1-0.7-1.3-1.5-0.7
		C188.4,61.1,188.6,61.8,188.7,62.4L188.7,62.4z"/>
	<path class="st2" d="M196.3,19.9c0.2-0.5,0.4-1,0.5-1.5c1,0.4,1.9,0.8,2.7,1.2c-0.1,1.4-0.3,2.8-0.4,4.1
		C198,22.6,197.9,20.8,196.3,19.9L196.3,19.9z"/>
	<path class="st3" d="M189.4,30.1c-0.1-0.5-0.2-0.8-0.3-1.2c0.6,0,1.1,0.1,1.7,0.2C190.4,29.4,190,29.7,189.4,30.1L189.4,30.1z"/>
	<path class="st1" d="M99.7,29.5c-1.9-0.1-3.8-0.3-5.7-0.4c0.1-0.7,1.5-2.2,2-2.3c0.1,0,0.3,0,0.4,0.1c1.1,0.8,2.3,1.6,3.4,2.5
		C99.8,29.3,99.8,29.4,99.7,29.5L99.7,29.5z"/>
	<path class="st1" d="M202.4,40.8c0.6,0.3,1.4,0.5,2,0.9c0.3,0.2,0.3,0.6,0.5,0.9c-0.3,0.1-0.7,0.4-1,0.4c-0.7-0.1-1.5-0.3-2.2-0.5
		c-0.3-0.1-0.5-0.2-0.7-0.2c0.3,0.8,0.5,1.4,0.7,2.2c0.1,0.2-0.2,0.5-0.2,0.8c-0.3-0.1-0.7-0.2-0.9-0.4c-0.4-0.8-0.7-1.6-1.1-2.4
		c-0.1-0.1-0.1-0.2-0.2-0.3c-0.4,0.7-0.8,1.4-1.2,2.1c-0.3,0.6-0.8,1-1.5,0.7c-0.7-0.3-0.5-0.9-0.4-1.4c0.2-0.7,0.6-1.3,0.9-2
		c0.1-0.1,0.1-0.3,0.2-0.5c-1-0.2-1.9-0.3-2.8-0.5c-0.3-0.1-0.6-0.5-0.9-0.7c0.3-0.2,0.6-0.6,1-0.7c0.9-0.1,1.8-0.1,2.9-0.2
		c-0.3-0.3-0.6-0.6-0.7-0.9c-0.3-0.5-0.6-1.1-0.7-1.6c-0.1-0.2,0.2-0.7,0.4-0.8c0.2-0.1,0.7,0.1,0.9,0.3c0.4,0.5,0.7,1,1,1.5
		c0.4,0.6,0.7,1.2,1.2,1.9c0-0.9,0-1.6,0-2.3c0-0.5,0.1-0.9,0.3-1.4c0.2-0.5,0.5-0.8,1.1-0.7c0.6,0.1,0.9,0.4,0.9,1
		c0.1,1.2-0.2,2.4-1,3.7c0.3-0.1,0.5-0.2,0.7-0.3c0.8-0.3,1.6-0.8,2.5-1c0.4-0.1,0.9-0.1,1.3,0.1c0.7,0.2,0.8,1,0.1,1.3
		C204.4,40.2,203.4,40.5,202.4,40.8L202.4,40.8z"/>
	<path class="st1" d="M202.2,13.9c-0.6-0.2-1.4-0.2-1.7-0.6c-0.5-0.6,0.2-1.1,0.8-1.5c-0.4-0.2-0.9-0.3-1.1-0.6
		c-0.2-0.3-0.3-0.8-0.2-1.1c0.3-0.9,0.8-0.9,2.3-0.5c0.1-0.7-0.2-1.6,0.9-1.8c0.9-0.2,1.3,0.1,1.6,0.9c0.8,0.2,1.7,0.1,2,0.5
		c0.3,0.3-0.1,1.1-0.2,1.7c-0.1,0-0.2,0-0.3,0c0.2,0.1,0.4,0.1,0.5,0.2c0.5,0.3,1.1,0.6,0.9,1.1c-0.2,0.4-0.8,0.9-1.3,1
		c-0.5,0.1-0.8,0.2-1.1,0.6c-0.9,1.4-2.2,1.3-3-0.2L202.2,13.9L202.2,13.9z"/>
	<path class="st1" d="M208.6,47.4c0.2,0.6,0.7,1.3,0,1.8c-0.7,0.5-1.4,0.1-2.1-0.4c-0.2,0.9-0.6,1.6-1.6,1.4c-1.1-0.1-1.1-1-1.1-1.8
		c-0.9-0.1-1.7-0.2-1.9-1.2c-0.2-0.8,0.3-1.3,0.8-1.5c0.1-0.7,0.1-1.5,0.4-1.7c0.5-0.2,1.2,0,1.9,0.1c0.3-0.2,0.7-0.7,1.2-1
		c0.2-0.1,0.7,0,1,0.2c0.8,0.4,0.9,0.9,0.3,1.8c0.8,0.2,1.9-0.5,2.2,0.8C209.9,46.7,209.4,47.1,208.6,47.4L208.6,47.4z"/>
	<path class="st1" d="M208.4,33.7c-0.7-0.1-1.4-0.2-2.1-0.3c-0.1,0.7-0.6,1.3-1.6,1.1c-1.1-0.1-1-1-1.1-1.8
		c-0.9-0.1-1.7-0.2-1.9-1.3c-0.1-0.8,0.4-1.2,0.8-1.4c0.1-0.7,0.1-1.6,0.4-1.7c0.5-0.2,1.2,0.1,1.9,0.2c0.5-0.9,1-1.2,1.9-1
		c0.8,0.2,0.9,0.6,0.7,2c0.7,0.2,1.7-0.4,2.1,0.7c0.3,0.9-0.3,1.4-1.1,1.7C208.8,32.5,208.9,33.1,208.4,33.7L208.4,33.7L208.4,33.7z
		"/>
	<path class="st1" d="M199.4,31.8c1.4,0.2,2.1,0.6,2,1.3c-0.1,0.6-0.5,0.8-2.1,0.6c0,0.4,0,0.8-0.2,1.1c-0.1,0.3-0.5,0.6-0.8,0.7
		c-0.1,0-0.5-0.4-0.6-0.6c-0.2-0.4-0.2-0.9-0.3-1.4c-0.6,0.3-1.1,0.5-1.6,0.7c-0.6,0.3-1.2,0.1-1.4-0.4c-0.1-0.3,0.1-0.8,0.3-1.1
		c0.3-0.4,0.8-0.6,1.2-0.8c-0.8-1.1-1-1.7-0.4-2c1.1-0.5,1.3,0.6,1.9,1c0.3-0.5,0.5-1,0.9-1.5c0.1-0.1,0.6-0.1,0.9,0.1
		C200.1,29.8,200.2,30.4,199.4,31.8L199.4,31.8z"/>
	<path class="st1" d="M196.1,47.5c-0.9-1.1-1-1.8-0.3-2.1c1-0.4,1.4,0.5,1.9,1.2c0.2-0.5,0.2-1.1,0.6-1.4c0.3-0.2,0.9-0.3,1.3-0.2
		c0.9,0.3,0.9,1.1,0.1,2.2c0.8,0.4,2.3,0.1,1.9,1.6c-0.3,1-1.3,0.4-2,0.4c-0.1,0.4,0,0.9-0.2,1.3c-0.1,0.3-0.4,0.6-0.7,0.6
		c-0.2,0-0.6-0.3-0.7-0.6c-0.2-0.4-0.2-1-0.3-1.5c-0.6,0.3-1,0.6-1.6,0.7c-0.4,0.1-1.1,0-1.2-0.2c-0.1-0.4-0.1-1,0.1-1.4
		C195.2,47.9,195.7,47.8,196.1,47.5L196.1,47.5z"/>
	<path class="st1" d="M209.9,22.4c0.5-0.6,0.2-2.3,1.9-1.4c1,0.5,1,0.6,0.1,2.1c0.6,0.2,1.1,0.4,1.7,0.7c0.2,0.1,0.2,0.4,0.2,0.7
		c0,0.6-0.2,0.7-2,0.7c-0.1,0.5-0.1,0.9-0.2,1.4c-0.1,0.2-0.4,0.4-0.6,0.5c-0.1,0-0.4-0.3-0.5-0.5c-0.2-0.5-0.4-1.1-0.6-1.6
		c-0.5,0.3-0.9,0.5-1.3,0.7c-0.5,0.2-1.1,0.4-1.5-0.2c-0.3-0.5,0-1.3,0.6-1.6c0.3-0.1,0.6-0.2,0.9-0.3c-0.1-0.7-1.7-1-0.6-1.9
		C209.1,20.4,209.1,22.2,209.9,22.4L209.9,22.4z"/>
	<path class="st1" d="M198,57.3c-0.5,0-1.2,1.2-1.9,0.2c-0.4-0.7,0.4-1.1,1-1.3c0.1-0.5-1.3-0.8-0.3-1.4c0.9-0.6,0.9,0.4,1.4,0.6
		c0.2-0.6,0.3-1.4,1.3-1c0.6,0.2,0.7,0.7,0.2,1.6c0.5,0.2,1.4,0.2,1.2,1c-0.1,0.3-0.7,0.4-1.2,0.7c-0.2,0.2-0.4,0.6-0.7,1.1
		C198.6,58.3,198.3,57.9,198,57.3L198,57.3z"/>
	<path class="st1" d="M188.7,62.4c0-0.6-0.3-1.3,0-1.5c0.8-0.7,0.9,0.6,1.5,0.7c0.3-0.5,0.1-1.4,1.1-1.1c0.6,0.2,0.7,0.7,0.2,1.6
		c0.5,0.4,1.6,0.1,1.3,1.1c-0.1,0.3-0.8,0.4-1.3,0.5c0-0.1-0.1-0.1-0.1-0.2c0,0.3,0,0.6-0.1,0.8c-0.1,0.2-0.3,0.4-0.4,0.6
		c-0.2-0.2-0.5-0.3-0.5-0.5c-0.1-0.9-0.5-1.1-1.3-0.6c-0.2,0.1-0.7,0-1,0c0.1-0.4,0.1-0.8,0.3-1.1C188.4,62.5,188.7,62.4,188.7,62.4
		L188.7,62.4z"/>
</g>
</svg>
